<svg xmlns="http://www.w3.org/2000/svg" width="102.373" height="102.373" viewBox="0 0 102.373 102.373">
  <g id="click" transform="translate(-64 -92)">
    <path id="Path_7" data-name="Path 7" d="M166.373,143.186a16.31,16.31,0,0,0-2.716-9.033,12.048,12.048,0,0,1-1.977-7.38,16.384,16.384,0,0,0-9.033-15.646,12.05,12.05,0,0,1-5.4-5.4A16.383,16.383,0,0,0,131.6,96.693a12.044,12.044,0,0,1-7.379-1.977,16.383,16.383,0,0,0-18.067,0,12.044,12.044,0,0,1-7.379,1.977,16.383,16.383,0,0,0-15.646,9.034,12.05,12.05,0,0,1-5.4,5.4,16.383,16.383,0,0,0-9.034,15.646,12.044,12.044,0,0,1-1.977,7.379,16.383,16.383,0,0,0,0,18.067,12.044,12.044,0,0,1,1.977,7.379,16.383,16.383,0,0,0,9.034,15.646,12.05,12.05,0,0,1,5.4,5.4,16.384,16.384,0,0,0,15.646,9.033,12.044,12.044,0,0,1,7.379,1.977,16.383,16.383,0,0,0,18.067,0,12.044,12.044,0,0,1,7.379-1.977,16.384,16.384,0,0,0,15.646-9.033,12.05,12.05,0,0,1,5.4-5.4A16.384,16.384,0,0,0,161.68,159.6a12.048,12.048,0,0,1,1.977-7.38A16.31,16.31,0,0,0,166.373,143.186Z" transform="translate(0)" fill="#0d0a0b"/>
    <g id="Group_7" data-name="Group 7" transform="translate(98.093 124.175)">
      <path id="Path_8" data-name="Path 8" d="M101.3,136.046a20.621,20.621,0,0,1,0,29.162" transform="translate(-101.299 -127.961)" fill="none" stroke="#f2e9e4" stroke-linecap="round" stroke-linejoin="round" stroke-width="3"/>
      <path id="Path_9" data-name="Path 9" d="M101.3,167.382a20.62,20.62,0,0,1,29.162,0" transform="translate(-101.299 -130.135)" fill="none" stroke="#f2e9e4" stroke-linecap="round" stroke-linejoin="round" stroke-width="3"/>
      <line id="Line_2" data-name="Line 2" y1="34.021" x2="34.021" transform="translate(3.225 0)" fill="none" stroke="#f2e9e4" stroke-linecap="round" stroke-linejoin="round" stroke-width="3"/>
    </g>
  </g>
</svg>
