<?xml version="1.0" encoding="utf-8"?>
<!-- Generator: Adobe Illustrator 25.2.1, SVG Export Plug-In . SVG Version: 6.00 Build 0)  -->
<svg version="1.1" id="圖層_1" xmlns="http://www.w3.org/2000/svg" xmlns:xlink="http://www.w3.org/1999/xlink" x="0px" y="0px"
	 viewBox="0 0 102.4 102.4" style="enable-background:new 0 0 102.4 102.4;" xml:space="preserve">
<style type="text/css">
	.st0{fill:#0D0A0B;}
</style>
<g id="click" transform="translate(-64 -92)">
	<path id="Path_7" class="st0" d="M166.4,143.2c0-3.2-0.9-6.4-2.7-9c-1.4-2.2-2.1-4.8-2-7.4c0.4-6.6-3.2-12.7-9-15.6
		c-2.3-1.2-4.2-3.1-5.4-5.4c-2.9-5.9-9.1-9.4-15.6-9c-2.6,0.2-5.2-0.5-7.4-2c-5.5-3.6-12.6-3.6-18.1,0c-2.2,1.4-4.8,2.1-7.4,2
		c-6.6-0.4-12.7,3.2-15.6,9c-1.2,2.3-3.1,4.2-5.4,5.4c-5.9,2.9-9.4,9.1-9,15.6c0.2,2.6-0.5,5.2-2,7.4c-3.6,5.5-3.6,12.6,0,18.1
		c1.4,2.2,2.1,4.8,2,7.4c-0.4,6.6,3.2,12.7,9,15.6c2.3,1.2,4.2,3.1,5.4,5.4c2.9,5.9,9.1,9.4,15.6,9c2.6-0.2,5.2,0.5,7.4,2
		c5.5,3.6,12.6,3.6,18.1,0c2.2-1.4,4.8-2.1,7.4-2c6.6,0.4,12.7-3.2,15.6-9c1.2-2.3,3.1-4.2,5.4-5.4c5.9-2.9,9.4-9.1,9-15.6
		c-0.2-2.6,0.5-5.2,2-7.4C165.4,149.5,166.4,146.4,166.4,143.2z"/>
</g>
</svg>
