<?xml version="1.0" encoding="utf-8"?>
<!-- Generator: Adobe Illustrator 25.2.1, SVG Export Plug-In . SVG Version: 6.00 Build 0)  -->
<svg version="1.1" id="圖層_1" xmlns="http://www.w3.org/2000/svg" xmlns:xlink="http://www.w3.org/1999/xlink" x="0px" y="0px"
	 viewBox="0 0 100.2 100.2" style="enable-background:new 0 0 100.2 100.2;" xml:space="preserve">
<style type="text/css">
	.st0{fill:none;}
	.st1{fill:none;stroke:#0D0A0B;stroke-width:3;stroke-linecap:round;stroke-linejoin:round;stroke-miterlimit:4;}
	.st2{fill:none;stroke:#0D0A0B;stroke-width:3;stroke-linecap:round;stroke-linejoin:round;}
</style>
<g id="click" transform="translate(92.411 -110.309) rotate(45)">
	<g id="Path_7" transform="translate(-0.158 0.158)">
		<path class="st0" d="M134.7,143.2c0-3.2-0.9-6.4-2.7-9c-1.4-2.2-2.1-4.8-2-7.4c0.4-6.6-3.2-12.7-9-15.6c-2.3-1.2-4.2-3.1-5.4-5.4
			c-2.9-5.9-9.1-9.4-15.6-9c-2.6,0.2-5.2-0.5-7.4-2c-5.5-3.6-12.6-3.6-18.1,0c-2.2,1.4-4.8,2.1-7.4,2c-6.6-0.4-12.7,3.2-15.6,9
			c-1.2,2.3-3.1,4.2-5.4,5.4c-5.9,2.9-9.4,9.1-9,15.6c0.2,2.6-0.5,5.2-2,7.4c-3.6,5.5-3.6,12.6,0,18.1c1.4,2.2,2.1,4.8,2,7.4
			c-0.4,6.6,3.2,12.7,9,15.6c2.3,1.2,4.2,3.1,5.4,5.4c2.9,5.9,9.1,9.4,15.6,9c2.6-0.2,5.2,0.5,7.4,2c5.5,3.6,12.6,3.6,18.1,0
			c2.2-1.4,4.8-2.1,7.4-2c6.6,0.4,12.7-3.2,15.6-9c1.2-2.3,3.1-4.2,5.4-5.4c5.9-2.9,9.4-9.1,9-15.6c-0.2-2.6,0.5-5.2,2-7.4
			C133.8,149.5,134.7,146.4,134.7,143.2z"/>
		<path d="M83.5,94c-2.8,0-5.6,0.8-7.9,2.4c-2.3,1.5-5,2.3-7.7,2.3c-0.3,0-0.6,0-0.9,0c-0.3,0-0.6,0-0.9,0c-2.5,0-5,0.7-7.2,1.9
			c-2.5,1.4-4.4,3.5-5.7,6c-1.4,2.7-3.6,4.9-6.3,6.3c-2.5,1.3-4.6,3.2-6,5.7c-1.4,2.5-2.1,5.2-1.9,8.1c0.2,3-0.6,6.1-2.3,8.6
			c-1.6,2.4-2.4,5.1-2.4,7.9c0,2.8,0.8,5.6,2.4,7.9c1.7,2.5,2.5,5.6,2.3,8.6c-0.2,2.8,0.5,5.6,1.9,8.1c1.4,2.5,3.5,4.4,6,5.7
			c2.7,1.4,4.9,3.6,6.3,6.3c1.3,2.5,3.2,4.6,5.7,6c2.2,1.3,4.7,1.9,7.2,1.9c0.3,0,0.6,0,0.9,0c0.3,0,0.6,0,0.9,0
			c2.8,0,5.4,0.8,7.7,2.3c2.4,1.6,5.1,2.4,7.9,2.4c2.8,0,5.6-0.8,7.9-2.4c2.3-1.5,5-2.3,7.7-2.3c0.3,0,0.6,0,0.9,0
			c0.3,0,0.6,0,0.9,0c2.5,0,5-0.7,7.2-1.9c2.5-1.4,4.4-3.5,5.7-6c1.4-2.7,3.6-4.9,6.3-6.3c2.5-1.3,4.6-3.2,6-5.7
			c1.4-2.5,2.1-5.2,1.9-8.1c-0.2-3,0.6-6.1,2.3-8.6c1.6-2.4,2.4-5.1,2.4-7.9c0-2.8-0.8-5.6-2.4-7.9c-1.7-2.5-2.5-5.6-2.3-8.6
			c0.2-2.8-0.5-5.6-1.9-8.1c-1.4-2.5-3.5-4.4-6-5.7c-2.7-1.4-4.9-3.6-6.3-6.3c-1.3-2.5-3.2-4.6-5.7-6c-2.2-1.3-4.7-1.9-7.2-1.9
			c-0.3,0-0.6,0-0.9,0c-0.3,0-0.6,0-0.9,0c-2.8,0-5.4-0.8-7.7-2.3C89.1,94.8,86.4,94,83.5,94 M83.5,92c3.3,0,6.4,1,9,2.7
			c2,1.3,4.3,2,6.6,2c0.2,0,0.5,0,0.7,0c0.3,0,0.7,0,1,0c2.8,0,5.6,0.7,8.2,2.2c2.9,1.7,5.1,4.1,6.5,6.9c1.2,2.3,3.1,4.2,5.4,5.4
			c2.8,1.4,5.2,3.6,6.9,6.5c1.7,2.9,2.4,6.1,2.2,9.2c-0.2,2.6,0.5,5.2,2,7.4c1.7,2.6,2.7,5.7,2.7,9c0,3.3-1,6.4-2.7,9
			c-1.4,2.2-2.1,4.8-2,7.4c0.2,3.1-0.5,6.3-2.2,9.2c-1.7,2.9-4.1,5.1-6.9,6.5c-2.3,1.2-4.2,3.1-5.4,5.4c-1.4,2.8-3.6,5.2-6.5,6.9
			c-2.6,1.5-5.4,2.2-8.2,2.2c-0.3,0-0.7,0-1,0c-0.2,0-0.5,0-0.7,0c-2.4,0-4.7,0.7-6.6,2c-2.6,1.7-5.7,2.7-9,2.7c-3.3,0-6.4-1-9-2.7
			c-2-1.3-4.3-2-6.6-2c-0.2,0-0.5,0-0.7,0c-0.3,0-0.7,0-1,0c-2.8,0-5.6-0.7-8.2-2.2c-2.9-1.7-5.1-4.1-6.5-6.9
			c-1.2-2.3-3.1-4.2-5.4-5.4c-2.8-1.4-5.2-3.6-6.9-6.5c-1.7-2.9-2.4-6.1-2.2-9.2c0.2-2.6-0.5-5.2-2-7.4c-1.7-2.6-2.7-5.7-2.7-9
			c0-3.3,1-6.4,2.7-9c1.4-2.2,2.1-4.8,2-7.4c-0.2-3.1,0.5-6.3,2.2-9.2c1.7-2.9,4.1-5.1,6.9-6.5c2.3-1.2,4.2-3.1,5.4-5.4
			c1.4-2.8,3.6-5.2,6.5-6.9c2.6-1.5,5.4-2.2,8.2-2.2c0.3,0,0.7,0,1,0c0.2,0,0.5,0,0.7,0c2.4,0,4.7-0.7,6.6-2
			C77.1,93,80.2,92,83.5,92z"/>
	</g>
	<g id="Group_7" transform="translate(95.626 126.642)">
		<line id="Line_2" class="st1" x1="-35.4" y1="16.7" x2="12.7" y2="16.7"/>
		<line id="Line_7" class="st2" x1="-11.4" y1="-7.4" x2="-11.4" y2="40.8"/>
	</g>
</g>
</svg>
