<?xml version="1.0" encoding="utf-8"?>
<!-- Generator: Adobe Illustrator 25.2.1, SVG Export Plug-In . SVG Version: 6.00 Build 0)  -->
<svg version="1.1" id="圖層_1" xmlns="http://www.w3.org/2000/svg" xmlns:xlink="http://www.w3.org/1999/xlink" x="0px" y="0px"
	 viewBox="0 0 50 50" style="enable-background:new 0 0 50 50;" xml:space="preserve">
<style type="text/css">
	.st0{fill:#0D0A0B;}
	.st1{fill:#9683C1;}
</style>
<path class="st0" d="M42.6,7.4C36.8,1.6,28.7-1,20.4,0.5c-3.4,0.6-6.7,2-9.5,3.9C4,9.3,0.1,16.8,0.1,25v24.9h49.7V25
	C49.9,18.3,47.3,12.1,42.6,7.4z"/>
<g>
	<circle class="st1" cx="14.5" cy="24" r="2"/>
	<circle class="st1" cx="35.5" cy="24" r="2"/>
</g>
<path class="st1" d="M30,28.4c-0.5,0-0.9,0.4-1,0.9h-8c-0.1-0.5-0.5-0.9-1-0.9c-0.6,0-1,0.4-1,1v1.7c0,0.6,0.4,1,1,1
	c0.5,0,0.9-0.4,1-0.9h8c0.1,0.4,0.5,0.8,1,0.8c0.6,0,1-0.4,1-1v-1.7C31,28.9,30.5,28.4,30,28.4z"/>
</svg>
