<?xml version="1.0" encoding="utf-8"?>
<!-- Generator: Adobe Illustrator 25.2.1, SVG Export Plug-In . SVG Version: 6.00 Build 0)  -->
<svg version="1.1" id="圖層_1" xmlns="http://www.w3.org/2000/svg" xmlns:xlink="http://www.w3.org/1999/xlink" x="0px" y="0px"
	 viewBox="0 0 756.3 196.9" style="enable-background:new 0 0 756.3 196.9;" xml:space="preserve">
<style type="text/css">
	.st0{fill:#F2E9E4;stroke:#0D0A0B;stroke-width:2;stroke-linecap:round;stroke-linejoin:round;stroke-miterlimit:10;}
</style>
<g>
	<path class="st0" d="M39.7,192.7c-0.9-0.5-2-1.4-3.1-2.4c-1.1-1.1-2.2-2.2-3.3-3.5c-1.1-1.3-2-2.6-2.9-3.8
		c-0.9-1.3-1.5-2.4-1.8-3.4c0.4-0.7,0.7-1.6,0.8-2.5c0.1-1-0.1-2.2-0.7-3.8c-0.6-1.5-1.8-3.4-3.5-5.6c-1.9-2.4-3.6-4-5-4.9
		c-1.4-0.9-2.6-1.3-3.5-1.3c-0.9,0-1.6,0.2-2.1,0.6c-0.9-0.4-1.9-1.1-2.9-2.2c-1.1-1-2.1-2.2-3.2-3.6c-1-1.3-2-2.7-2.8-4.1
		c-0.8-1.4-1.4-2.7-1.7-3.9c1.1-0.8,2.4-1.6,3.9-2.6c1.5-1,3-2,4.6-3.1c1.6-1.1,3-2.1,4.3-3.2c2.7-2.2,5.6-4.5,8.5-7.1
		c2.9-2.5,6.3-5.5,10.1-9c1.4,3,2.8,5.2,4.1,6.6c1.4,1.5,3.2,2.3,5.3,2.5c2.2,0.2,5-0.1,8.6-1l-0.4-2c-3.3,0.8-5.8,1.1-7.7,0.9
		c-1.9-0.1-3.4-0.9-4.6-2.2c-1.2-1.3-2.4-3.4-3.7-6.1c1.6-1.2,3.6-2.6,5.9-3.9c2.3-1.4,4.7-3.1,7.3-5.2c2.3-1.9,4.4-3.6,6.1-5.4
		c1.7-1.7,3.3-3.3,4.7-4.6c1.1,0.6,2.2,1.5,3.4,2.6c1.2,1.1,2.3,2.3,3.4,3.7c1.1,1.4,2,2.7,2.8,4c0.8,1.3,1.3,2.4,1.5,3.3
		c-0.5,0.4-0.8,1-1,1.9c-0.2,0.9-0.1,2.1,0.5,3.6c0.5,1.5,1.8,3.5,3.7,5.9c1.8,2.2,3.3,3.8,4.7,4.7c1.3,0.9,2.5,1.4,3.5,1.5
		c1,0.1,1.9,0,2.7-0.2c0.9,0.6,1.9,1.4,2.9,2.6c1.1,1.1,2.1,2.3,3.1,3.7c1,1.3,1.9,2.6,2.7,4c0.8,1.4,1.3,2.5,1.6,3.6
		c-1.7,1-3.7,2.3-6.1,3.9c-2.4,1.6-4.9,3.4-7.3,5.3c-3.2,2.5-6.1,5.1-8.9,7.6c-2.8,2.6-5.9,5.3-9.2,8.2c-1.4-2.9-2.9-5.1-4.4-6.7
		c-1.5-1.6-3.2-2.7-5.1-3.3c-1.9-0.6-4.3-0.7-7-0.5l0.2,2.1c2.5-0.2,4.6,0,6.3,0.6c1.7,0.6,3.2,1.6,4.5,3.1c1.3,1.5,2.6,3.5,3.8,6.1
		c-1.4,0.8-3,1.9-5,3c-2,1.2-4.2,2.8-6.6,4.7c-2.3,1.8-4.5,3.8-6.6,5.8C42.9,189.7,41.1,191.4,39.7,192.7z"/>
	<path class="st0" d="M125.7,131.7c-6.7,4-12.7,6.4-18.1,7c-5.3,0.7-10.1-0.2-14.1-2.5c-4.1-2.3-7.6-5.9-10.6-10.9
		c-3.4-5.7-5.1-10.9-5-15.6c0-4.7,1.8-9.2,5.4-13.5c3.5-4.3,8.8-8.5,15.9-12.8c5.3-3.2,10.3-5.4,15.1-6.8c4.8-1.4,9-1.7,12.7-1
		c3.7,0.7,6.5,2.7,8.4,5.9c0.7,1.2,1.2,2.4,1.6,3.8c0.4,1.4,0.3,2.9-0.2,4.5c-0.5,1.6-1.7,3.3-3.4,5.2c-1.8,1.9-4.5,3.9-8.1,6
		c-2.4,1.4-4.6,2.7-6.5,3.8c-2,1.1-3.8,2-5.5,2.8l-3.1,1.9l2.7,4.6l3-1.8l-1.5-2.5c8.5-5.6,17.7-11.2,27.7-16.6
		c2.7,4.6,4.1,9,4,13.3c-0.1,4.3-1.8,8.6-5.1,12.7C137.7,123.4,132.6,127.6,125.7,131.7z M108.2,106.3l3-1.8l-2.1-3.6l-3,1.8
		L108.2,106.3z"/>
	<path class="st0" d="M155.1,112.6c-0.8-0.8-1.6-1.9-2.4-3.3c-0.8-1.4-1.5-2.8-2.2-4.4c-0.7-1.6-1.2-3.1-1.7-4.5
		c-0.4-1.4-0.7-2.5-0.7-3.4c1.9-0.7,3.3-2.2,4.1-4.3c0.9-2.1,1.7-4.7,2.4-7.8c-2.4-1.7-4.8-3-7.1-3.9c-2.3-0.9-4.5-1.1-6.6-0.7
		c-0.7-0.6-1.4-1.5-2.1-2.8c-0.8-1.3-1.5-2.8-2.1-4.4c-0.7-1.6-1.2-3.3-1.6-4.8c-0.4-1.6-0.6-2.9-0.6-4.1c1.8-0.5,4.2-1.4,7.4-2.5
		c3.2-1.1,6.6-2.5,10.4-4.1c1.7-0.7,3.4-1.5,5.3-2.4c1.8-0.9,3.6-1.8,5.3-2.7c1.7-0.9,3.1-1.7,4.3-2.3c0.6,1.8,1.5,3.5,2.5,5.3
		c1,1.8,2.4,3.4,3.9,4.7c1.6,1.3,3.5,2.2,5.7,2.7l0.5-2c-2.8-0.6-5.1-2-6.7-4.1c-1.7-2.1-3-4.6-4.1-7.3c1.2-0.3,2.4-0.7,3.7-1.1
		c1.3-0.4,2.9-0.9,4.7-1.6c1.9-0.7,4.2-1.6,7-2.8c1.3-0.6,2.8-1.2,4.5-2.1c1.7-0.8,3.3-1.6,4.9-2.5c1.6-0.9,2.9-1.6,4-2.1
		c0.8,0.7,1.6,1.8,2.4,3.2c0.8,1.4,1.6,2.9,2.3,4.5c0.7,1.6,1.2,3.2,1.7,4.7c0.4,1.5,0.6,2.7,0.6,3.6c-1.2,0.7-2.4,1.8-3.7,3.5
		c-1.3,1.7-2.3,4.4-3.1,8.1c2.9,2.2,5.4,3.7,7.6,4.6c2.2,0.8,4.4,0.9,6.6,0.3c0.7,0.7,1.4,1.7,2.2,3.1c0.7,1.4,1.4,2.8,2,4.4
		c0.6,1.6,1.1,3.1,1.5,4.6c0.4,1.5,0.6,2.8,0.6,3.8c-1.8,0.5-4.3,1.3-7.5,2.4c-3.2,1.1-6.6,2.5-10.4,4.1c-2.7,1.2-5.3,2.4-7.8,3.7
		c-2.5,1.3-4.7,2.4-6.6,3.5c-0.8-1.7-1.7-3.3-2.7-4.9c-1.1-1.6-2.3-3.1-3.9-4.4c-1.5-1.3-3.4-2.3-5.7-2.9l-0.7,2
		c2.9,0.8,5.2,2.3,6.8,4.2c1.6,2,3,4.2,4.3,6.8c-2.6,0.7-5,1.5-7.2,2.3c-2.2,0.8-4.3,1.6-6.2,2.4c-2.6,1.1-5.2,2.3-7.7,3.6
		C160.6,109.6,157.9,111,155.1,112.6z"/>
	<path class="st0" d="M247.2,79.4c-6.9,1.9-12.4,2.4-16.7,1.6c-4.2-0.8-7.4-2.9-9.5-6.2c-1-1.5-1.7-3.2-2.2-5.1
		c-0.5-2-1-4.2-1.4-6.7c-0.4-2.5-1.1-5.3-1.8-8.3l-4.5,1.2c-0.6-1.2-1.1-2.6-1.7-4.2c-0.5-1.6-1-3.2-1.3-4.9
		c-0.4-1.7-0.6-3.2-0.7-4.5c0.9-1.3,1.8-2.6,2.7-3.8c0.9-1.3,1.6-2.7,2.1-4.2c0.5-1.5,0.7-3.4,0.4-5.5c1.7-0.2,3.8-0.6,6.2-1.2
		c2.4-0.6,5-1.2,7.7-2c2.7-0.8,5.3-1.6,7.9-2.4c2.6-0.8,4.8-1.6,6.8-2.3c0.5,0.8,1,1.6,1.4,2.4c0.4,0.8,0.8,1.6,1.1,2.5l15.1-4.2
		c0.5,0.8,1,2,1.5,3.6c0.5,1.6,1,3.4,1.5,5.2c0.4,1.8,0.7,3.5,0.8,4.8l-19.1,5.3l4,14.5l2-0.6l-3.2-12c0.9-0.6,2.1-1.3,3.5-1.9
		c1.4-0.6,3-1.2,4.7-1.6c1.7-0.5,3.3-0.8,4.9-1c1.6-0.2,3-0.3,4.1-0.2c0.2,0.2,0.6,0.9,1.2,2.2c0.6,1.3,1.2,2.8,1.9,4.6
		c0.7,1.8,1.3,3.7,1.8,5.6c0.6,2,0.9,4.2,1,6.4c0.1,2.2-0.1,4.4-0.7,6.6c-0.6,2.2-1.7,4.3-3.4,6.3c-1.6,2-3.9,3.9-6.9,5.6
		C255.5,76.6,251.8,78.1,247.2,79.4z"/>
	<path class="st0" d="M320.7,63.8c-0.4-1-0.8-2.3-1.1-3.8c-0.3-1.5-0.4-3.1-0.5-4.8c-0.1-1.7,0-3.3,0.1-4.8c0.1-1.5,0.4-2.8,0.7-3.8
		c0.7-0.3,1.4-0.8,2.1-1.5c0.7-0.7,1.3-1.8,1.7-3.4c0.5-1.6,0.7-3.8,0.6-6.6c0-3.1-0.4-5.4-0.9-6.9c-0.6-1.6-1.2-2.6-2-3.1
		c-0.8-0.5-1.4-0.8-2-0.8c-0.4-0.9-0.8-2-1-3.5c-0.2-1.5-0.3-3.1-0.3-4.8c0-1.7,0.1-3.4,0.3-5c0.2-1.6,0.6-3,1-4.2
		c3.6,0.1,6.8,0.1,9.6-0.1c2.9-0.1,5.7-0.3,8.6-0.6c2.9-0.2,6-0.5,9.4-0.7c3.4-0.2,7.4-0.4,12-0.4c6.8-0.1,12.5,0.4,17.2,1.5
		c4.7,1.1,8.2,3.2,10.7,6.2c2.5,3.1,3.8,7.4,3.8,13.2c0.1,4.9-0.8,8.9-2.6,11.9c-1.8,3-4.4,5.2-7.9,6.6c-3.4,1.4-7.6,2.1-12.4,2.2
		c-3.1,0-5.5-0.2-7.4-0.6c-1.8-0.5-3.5-1.6-5.1-3.3l-1.5,1.4c1.3,1.5,2.8,2.6,4.6,3.4c1.8,0.8,4,1.2,6.6,1.2
		c0.5,1.3,0.8,2.9,0.9,4.6c0.1,1.7,0.1,3.5-0.1,5.2c-0.2,1.7-0.5,3.3-1,4.7c-2.4-0.2-5.6-0.3-9.8-0.6c-4.2-0.2-8.9-0.3-14.2-0.1
		c-2.7,0-5.3,0.2-7.9,0.3c-2.6,0.2-5,0.4-7.1,0.6C323.8,63.4,322,63.6,320.7,63.8z M353.7,31.5l4.4-0.1l-0.1-4.8l-4.4,0.1
		L353.7,31.5z"/>
	<path class="st0" d="M392.9,62.1c-0.4-1.6-0.7-3.4-0.8-5.5c-0.1-2.1-0.1-4.2,0.2-6.3c0.2-2.1,0.5-3.8,1-5.2
		c1.1-0.2,2.2-0.9,3.1-2.1c1-1.2,1.5-3.2,1.7-6.1c0.1-2.4,0-4.4-0.5-5.8s-0.9-2.4-1.5-3c-0.6-0.6-1.1-0.9-1.6-1
		c-0.4-1.6-0.6-3.5-0.7-5.7c-0.1-2.2,0.1-4.4,0.4-6.5c0.3-2.1,0.8-3.9,1.5-5.3c2.2,0.4,4.8,0.8,7.6,1.1c2.8,0.3,5.7,0.6,8.7,0.7
		c3,0.2,5.9,0.3,8.8,0.4c2.9,0.1,5.3,0.1,7.1,0.1c-0.5,0.5-1.1,1.3-1.6,2.3c-0.6,1-1.1,2.1-1.6,3.3c-0.5,1.2-0.8,2.3-1.1,3.4
		c-0.2,1.1-0.3,1.9-0.2,2.5c0.9-2.3,2.3-4.3,4.2-6.3c1.8-1.9,4.2-3.4,7-4.6c2.8-1.1,6.1-1.6,9.9-1.4c4.9,0.3,8.7,1.8,11.4,4.7
		s3.9,7.2,3.6,13.1c-0.3,5.7-2.2,10-5.6,13c-3.5,3-8,4.4-13.5,4.1c-3.5-0.2-6.2-1.2-8.2-3c-2-1.8-2.9-4.3-2.7-7.5l-2.1-0.1
		c-0.2,2.7,0.2,4.9,1.1,6.8c0.9,1.8,2.4,3.4,4.4,4.8c0.3,1,0.4,2.3,0.5,3.8c0,1.5,0,3.2-0.1,4.9c-0.1,1.7-0.4,3.3-0.7,4.8
		c-0.3,1.5-0.7,2.7-1.1,3.7c-1.6-0.2-3.6-0.5-6-0.8c-2.4-0.3-5-0.6-7.7-0.8c-2.7-0.3-5.3-0.5-7.8-0.6c-3.6-0.2-6.8-0.2-9.7-0.1
		C397.3,61.8,394.9,62,392.9,62.1z"/>
	<path class="st0" d="M488.8,73.5c-21.5-4.5-30.3-15.5-26.7-33c2-9.5,6.2-16,12.6-19.3c6.4-3.3,15-3.8,25.8-1.5
		c11.5,2.4,19.4,6.4,23.7,11.9c4.3,5.5,5.6,12.5,3.8,21.1c-2,9.6-6.3,16.1-12.8,19.4C508.7,75.3,499.9,75.8,488.8,73.5z M492.3,50.1
		l3.8,0.8l1.6-7.7l-3.8-0.8L492.3,50.1z"/>
	<path class="st0" d="M527.7,93.8c-1.5-0.5-3-1-4.6-1.6c-1.6-0.6-3.3-1.3-4.9-2c-0.1-1.5,0-3,0.4-4.8c0.4-1.7,0.9-3.4,1.6-5.1
		c0.7-1.7,1.5-3.1,2.3-4.3c2.2-0.9,4.4-2.5,6.5-4.9c2.1-2.4,3.9-5.9,5.5-10.5c0.9-2.5,1.2-4.8,1-6.7c-0.2-1.9-0.6-3.5-1.1-4.7
		c-0.6-1.2-1.1-2-1.4-2.4c-0.2-0.9-0.1-2.1,0.2-3.6c0.3-1.5,0.7-3.1,1.3-4.8c0.6-1.7,1.3-3.2,2-4.7c0.7-1.5,1.5-2.6,2.3-3.5l3.8,1.7
		c-1.1,2.8-1.4,5.4-0.7,7.8c0.6,2.5,2,4.5,4,6.2c2,1.6,4.4,2.6,7.2,3c-2.2-0.8-4-2.1-5.5-3.8c-1.5-1.7-2.5-3.6-3-5.8
		c-0.5-2.2-0.4-4.4,0.4-6.6c0.6-1.9,1.7-3.5,3.1-5c1.5-1.5,3.5-2.4,5.9-2.9c2.5-0.5,5.5-0.1,9,1.1c5.7,1.9,9.4,4.7,11,8.4
		c1.7,3.7,1.6,8.4-0.3,13.9c-0.7,2-1.4,3.7-2.2,5.2c-0.8,1.5-1.6,2.9-2.4,4.2c-0.9,1.4-1.7,2.9-2.6,4.6c-0.8,1.7-1.7,3.8-2.5,6.3
		c-1.1,3.1-1.9,6.2-2.4,9.1c-0.6,2.9-1.2,5.6-1.8,8c-0.6,2.4-1.5,4.5-2.8,6.2c-2.6,3.6-6.2,5.4-10.9,5.5
		C541.4,97.6,535.3,96.4,527.7,93.8z"/>
	<path class="st0" d="M587.5,106.3c-7.1-3.3-12.4-6.9-16-11c-3.5-4-5.5-8.4-5.9-13.1c-0.4-4.7,0.6-9.6,3.1-14.8
		c2.8-6,6.1-10.3,10.1-13c3.9-2.6,8.7-3.7,14.2-3.2c5.5,0.5,12,2.5,19.5,6c5.6,2.6,10.3,5.5,14.1,8.7s6.5,6.5,8,10
		c1.5,3.5,1.4,6.9-0.1,10.2c-0.6,1.2-1.3,2.4-2.3,3.4c-0.9,1.1-2.2,1.8-3.8,2.3c-1.6,0.5-3.7,0.5-6.2,0.1c-2.5-0.4-5.7-1.5-9.5-3.3
		c-2.5-1.2-4.8-2.3-6.8-3.3s-3.8-2-5.4-2.9l-3.3-1.5l-2.2,4.8l3.2,1.5l1.2-2.6c9.4,3.8,19.2,8.3,29.3,13.5
		c-2.2,4.8-5.2,8.4-8.8,10.8c-3.6,2.3-8.1,3.3-13.4,3C601.2,111.6,594.9,109.7,587.5,106.3z M598.8,77.6L602,79l1.8-3.8l-3.2-1.5
		L598.8,77.6z"/>
	<path class="st0" d="M647.2,139c-6.9-4.4-11.8-8.9-14.9-13.6c-3-4.7-4.4-9.4-4.1-14.2c0.3-4.8,1.9-9.6,5-14.3
		c3-4.7,6.5-8.1,10.5-10.3c4-2.2,8.3-3.1,12.9-2.8c4.6,0.3,9.1,1.9,13.7,4.8c4.4,2.8,7.4,5.7,9,8.6c1.6,3,1.2,6.4-1.1,10.3
		c1.3-1.1,2.4-2.5,3.2-4c0.8-1.5,1.6-3,2.3-4.5c1.3,0.9,2.9,1.8,4.6,2.9c1.7,1.1,3.6,2.1,5.4,3.2s3.6,2.1,5.3,3.1
		c1.6,1,3,1.8,4.2,2.6c-0.5,1.2-1.1,2.8-2.1,4.5c-0.9,1.8-2,3.7-3.2,5.6c-1.2,2-2.5,3.9-3.8,5.7c-1.3,1.8-2.6,3.4-3.8,4.8
		c-1.3-0.6-2.9-1.4-4.7-2.5c-1.9-1.1-3.9-2.2-6-3.5c-2.1-1.3-4.2-2.6-6.3-4s-4-2.7-5.7-3.9c-1.7-1.2-3-2.2-4-3.1l1.4-2.3l-2.9-1.9
		l-4.5,7.1l2.9,1.9l1.6-2.5c8.9,5.1,18,10.9,27.2,17.3c-3.4,5-7.1,8.5-11.1,10.6c-4,2.1-8.5,2.7-13.5,1.8S653.7,143.2,647.2,139z"/>
	<path class="st0" d="M697.1,175.1c-5.5-4.5-9.2-8.7-11-12.6c-1.8-3.9-1.9-7.7-0.4-11.3c0.7-1.6,1.6-3.2,2.9-4.8s2.8-3.2,4.6-5
		c1.8-1.8,3.7-3.9,5.7-6.3l-3.6-3c0.7-1.2,1.5-2.5,2.5-3.8c1-1.4,2.1-2.7,3.2-3.9c1.2-1.3,2.2-2.3,3.3-3.2c1.6,0,3.2,0,4.7,0
		c1.5,0,3.1-0.3,4.6-0.7c1.6-0.5,3.1-1.4,4.7-2.8c1.2,1.3,2.7,2.7,4.6,4.4c1.9,1.6,3.9,3.3,6.1,5.1c2.2,1.8,4.4,3.4,6.5,5.1
		c2.2,1.6,4.1,3,5.8,4.2c-0.4,0.9-0.7,1.7-1.2,2.6c-0.4,0.8-0.9,1.6-1.4,2.3l12.2,9.9c-0.4,0.8-1.1,1.9-2.1,3.3
		c-1,1.4-2.2,2.8-3.4,4.2c-1.3,1.4-2.4,2.6-3.5,3.4l-15.4-12.5l-9.5,11.6l1.6,1.3l7.9-9.6c1.1,0.4,2.3,1,3.6,1.8
		c1.3,0.8,2.7,1.8,4,2.9c1.3,1.1,2.6,2.2,3.6,3.4c1.1,1.2,1.9,2.3,2.6,3.2c0,0.3-0.4,1-1.1,2.2c-0.7,1.2-1.6,2.6-2.7,4.2
		c-1.1,1.6-2.3,3.2-3.5,4.7c-1.3,1.6-2.9,3.1-4.6,4.5c-1.7,1.4-3.6,2.5-5.8,3.2c-2.1,0.8-4.5,1.1-7.1,0.9c-2.6-0.2-5.4-1-8.5-2.4
		C704.1,180.3,700.7,178.1,697.1,175.1z"/>
</g>
</svg>
