<svg id="圖層_1" data-name="圖層 1" xmlns="http://www.w3.org/2000/svg" viewBox="0 0 16 16"><defs><style>.cls-1{fill:#9683c1;}.cls-2{fill:#0d0a0b;}</style></defs><path class="cls-1" d="M13.68,2.43a8,8,0,0,0-10.2-1A8.08,8.08,0,0,0,0,8.09v8H16v-8A7.79,7.79,0,0,0,13.68,2.43Z"/><circle class="cls-2" cx="4.64" cy="7.77" r="0.64"/><circle class="cls-2" cx="11.4" cy="7.77" r="0.64"/><path class="cls-2" d="M9.63,9.19a.35.35,0,0,0-.33.29H6.73a.34.34,0,0,0-.32-.29.31.31,0,0,0-.33.32v.55a.31.31,0,0,0,.33.32.34.34,0,0,0,.32-.29H9.3a.36.36,0,0,0,.33.26A.3.3,0,0,0,10,10V9.48A.34.34,0,0,0,9.63,9.19Z"/></svg>